HIERARCHY
ROOT Hips
{
  OFFSET 51.6623 50.5643 7.52873
  CHANNELS 6 Xposition Yposition Zposition Zrotation Xrotation Yrotation
  JOINT spine
  {
    OFFSET 0 8.81704 0.507024
    CHANNELS 3 Zrotation Xrotation Yrotation
    JOINT spine1
    {
      OFFSET 0 10.7766 0
      CHANNELS 3 Zrotation Xrotation Yrotation
      JOINT spine2
      {
        OFFSET 0 10.3259 0
        CHANNELS 3 Zrotation Xrotation Yrotation
        JOINT Neck
        {
          OFFSET 0 26.511 1.26395
          CHANNELS 3 Zrotation Xrotation Yrotation
          JOINT Head
          {
            OFFSET 0 8.00966 0
            CHANNELS 3 Zrotation Xrotation Yrotation
            End Site
            {
              OFFSET 0 19.3879 -6.39386
            }
          }
        }
        JOINT RightShoulder
        {
          OFFSET -4.34795 11.1512 -0.605422
          CHANNELS 3 Zrotation Xrotation Yrotation
          JOINT RightArm
          {
            OFFSET 0 14.6258 0
            CHANNELS 3 Zrotation Xrotation Yrotation
            JOINT RightArmRoll
            {
              OFFSET 0 7.3834 0
              CHANNELS 3 Zrotation Xrotation Yrotation
              JOINT RightForeArm
              {
                OFFSET 0 21.5052 0
                CHANNELS 3 Zrotation Xrotation Yrotation
                JOINT RightForeArmRoll
                {
                  OFFSET 0 8.28532 0
                  CHANNELS 3 Zrotation Xrotation Yrotation
                  JOINT RightHand
                  {
                    OFFSET 0 16.6268 0
                    CHANNELS 3 Zrotation Xrotation Yrotation
                    End Site
                    {
                      OFFSET 0 0 0
                    }
                  }
                }
              }
            }
          }
        }
        JOINT LeftShoulder
        {
          OFFSET 4.34795 11.1512 -0.605422
          CHANNELS 3 Zrotation Xrotation Yrotation
          JOINT LeftArm
          {
            OFFSET 0 14.6258 0
            CHANNELS 3 Zrotation Xrotation Yrotation
            JOINT LeftArmRoll
            {
              OFFSET 0 7.3834 0
              CHANNELS 3 Zrotation Xrotation Yrotation
              JOINT LeftForeArm
              {
                OFFSET 0 21.5052 0
                CHANNELS 3 Zrotation Xrotation Yrotation
                JOINT LeftForeArmRoll
                {
                  OFFSET 0 8.28532 0
                  CHANNELS 3 Zrotation Xrotation Yrotation
                  JOINT LeftHand
                  {
                    OFFSET 0 16.6268 0
                    CHANNELS 3 Zrotation Xrotation Yrotation
                    End Site
                    {
                      OFFSET 0 0 0
                    }
                  }
                }
              }
            }
          }
        }
      }
    }
  }
  JOINT RightUpLeg
  {
    OFFSET -7.8151 -1.43309 -1.20217
    CHANNELS 3 Zrotation Xrotation Yrotation
    JOINT RightUpLegRoll
    {
      OFFSET 0 19.4959 0
      CHANNELS 3 Zrotation Xrotation Yrotation
      JOINT RightLeg
      {
        OFFSET 0 -24.1427 0
        CHANNELS 3 Zrotation Xrotation Yrotation
        JOINT RightLegRoll
        {
          OFFSET 0 24.2217 0
          CHANNELS 3 Zrotation Xrotation Yrotation
          JOINT RightFoot
          {
            OFFSET 0 20.1605 0
            CHANNELS 3 Zrotation Xrotation Yrotation
            JOINT RightToeBase
            {
              OFFSET 0 16.8532 0
              CHANNELS 3 Zrotation Xrotation Yrotation
              End Site
              {
                OFFSET 0.00714343 8.16187 -0.94078
              }
            }
          }
        }
      }
    }
  }
  JOINT LeftUpLeg
  {
    OFFSET 7.8151 -1.43309 -1.20217
    CHANNELS 3 Zrotation Xrotation Yrotation
    JOINT LeftUpLegRoll
    {
      OFFSET 0 19.496 0
      CHANNELS 3 Zrotation Xrotation Yrotation
      JOINT LeftLeg
      {
        OFFSET 0 24.1426 0
        CHANNELS 3 Zrotation Xrotation Yrotation
        JOINT LeftLegRoll
        {
          OFFSET 0 24.4456 0
          CHANNELS 3 Zrotation Xrotation Yrotation
          JOINT LeftFoot
          {
            OFFSET 0 19.9366 0
            CHANNELS 3 Zrotation Xrotation Yrotation
            JOINT LeftToeBase
            {
              OFFSET 0 16.8532 0
              CHANNELS 3 Zrotation Xrotation Yrotation
              End Site
              {
                OFFSET -0.0320138 8.16186 -0.940781
              }
            }
          }
        }
      }
    }
  }
}
MOTION
Frames: 8
Frame Time: 0.00208333
50.8928 100.803 40.0961 0.429301 -3.49787 0.877693 0.23368 -1.83349 -0.0868014 0.454324 0.335399 -0.201014 0.456867 1.98043 -0.208776 -6.6915 27.9038 5.17048 -4.41913 -12.6282 1.70705 63.49 -0.933051 -1.14079 108.469 14.363 12.3127 4.2345e-007 1.34129e-006 -1.5275e-006 14.2125 1.28994 -0.315378 -5.75092e-006 -1.14108e-006 -3 8.02891 -4.95147 0.697686 -64.3104 -5.24747 3.59954 -109.047 13.7811 -4.89431 -1.7228e-005 1.85548e-006 9.16869e-007 -11.8643 5.73139 1.0777 8.80905e-006 -8.29333e-007 2.99999 -8.02885 -4.95145 -0.697661 178.996 -2.25369 -0.679228 180 7.01535e-015 178.872 179.046 7.33916 179.618 -2.70336e-006 4.08982e-006 0.0726378 -18.5436 67.8472 19.4081 8.18672 26.0886 -2.85649 -177.988 -1.99221 3.16579 4.54188e-006 -4.6773e-006 -1.12216 -1.30543 -7.67866 0.256107 -1.72263e-007 -1.14387e-006 -0.11029 19.0138 68.3937 -19.881 -8.15314 25.5069 3.13217 
50.8821 100.799 40.0928 0.429871 -3.48777 0.881477 0.233681 -1.83427 -0.0881042 0.454624 0.333848 -0.203326 0.457157 1.97888 -0.211086 -6.6966 27.8969 5.17063 -4.42295 -12.6223 1.70518 63.4858 -0.928437 -1.1378 108.468 14.36 12.3213 4.2345e-007 1.34129e-006 -1.5275e-006 14.2077 1.28309 -0.315091 -5.75092e-006 -1.14108e-006 -3 8.02891 -4.95147 0.697686 -64.3145 -5.2441 3.59794 -109.034 13.7767 -4.90332 -1.7228e-005 1.85548e-006 9.16869e-007 -11.8629 5.73173 1.07755 8.80905e-006 -8.29333e-007 2.99999 -8.02885 -4.95145 -0.697661 178.993 -2.24463 -0.676757 180 7.01535e-015 178.872 179.041 7.33187 179.619 -2.70336e-006 4.08982e-006 0.0726222 -18.5394 67.8422 19.4036 8.18686 26.0906 -2.85869 -177.989 -1.97567 3.16653 4.54188e-006 -4.6773e-006 -1.12216 -1.3063 -7.68454 0.256301 -1.72263e-007 -1.14387e-006 -0.110282 19.0144 68.3944 -19.8817 -8.15295 25.5041 3.13465 
50.88 100.8 40.1034 0.430488 -3.47726 0.885703 0.233682 -1.83516 -0.0894917 0.45492 0.332065 -0.205816 0.457443 1.9771 -0.213574 -6.70199 27.8906 5.17089 -4.42665 -12.6171 1.70326 63.4815 -0.923517 -1.13462 108.466 14.3567 12.3297 4.2345e-007 1.34129e-006 -1.5275e-006 14.203 1.2763 -0.314838 -5.75092e-006 -1.14108e-006 -3 8.02891 -4.95147 0.697686 -64.3189 -5.24052 3.59625 -109.02 13.7713 -4.91163 -1.7228e-005 1.85548e-006 9.16869e-007 -11.8625 5.7336 1.07755 8.80905e-006 -8.29333e-007 2.99999 -8.02885 -4.95145 -0.697661 178.99 -2.23529 -0.674185 180 7.01535e-015 178.872 179.036 7.3243 179.619 -2.70336e-006 4.08982e-006 0.072599 -18.5351 67.837 19.3989 8.18702 26.0929 -2.86094 -177.989 -1.95842 3.16749 4.54188e-006 -4.6773e-006 -1.12216 -1.30704 -7.69073 0.256526 -1.72263e-007 -1.14387e-006 -0.110269 19.015 68.3951 -19.8824 -8.15276 25.5012 3.13726 
50.8886 100.801 40.1033 0.431137 -3.46645 0.890237 0.233683 -1.83613 -0.0909386 0.455215 0.33012 -0.208431 0.457727 1.97515 -0.216187 -6.7076 27.8846 5.17123 -4.43027 -12.6124 1.70131 63.477 -0.918384 -1.13129 108.465 14.3533 12.3382 4.2345e-007 1.34129e-006 -1.5275e-006 14.1984 1.26956 -0.314607 -5.75092e-006 -1.14108e-006 -3 8.02891 -4.95147 0.697686 -64.3236 -5.23679 3.59448 -109.005 13.7654 -4.91947 -1.7228e-005 1.85548e-006 9.16869e-007 -11.8626 5.73654 1.07766 8.80905e-006 -8.29333e-007 2.99999 -8.02885 -4.95145 -0.697661 178.987 -2.22573 -0.671542 180 7.01535e-015 178.872 179.031 7.31654 179.62 -2.70336e-006 4.08982e-006 0.0725705 -18.5307 67.8316 19.3942 8.1872 26.0954 -2.8632 -177.99 -1.94066 3.16861 4.54188e-006 -4.6773e-006 -1.12216 -1.30768 -7.69713 0.256773 -1.72263e-007 -1.14387e-006 -0.110254 19.0157 68.3959 -19.8832 -8.15255 25.4982 3.13996 
50.8889 100.8 40.1023 0.431804 -3.45548 0.894949 0.233684 -1.83714 -0.0924193 0.455508 0.328082 -0.211118 0.458009 1.97311 -0.218872 -6.71332 27.8789 5.17161 -4.43384 -12.608 1.69935 63.4724 -0.91313 -1.12789 108.464 14.3498 12.3466 4.2345e-007 1.34129e-006 -1.5275e-006 14.1938 1.26285 -0.31439 -5.75092e-006 -1.14108e-006 -3 8.02891 -4.95147 0.697686 -64.3283 -5.23298 3.59268 -108.99 13.759 -4.92703 -1.7228e-005 1.85548e-006 9.16869e-007 -11.8632 5.74008 1.07783 8.80905e-006 -8.29333e-007 2.99999 -8.02885 -4.95145 -0.697661 178.984 -2.21606 -0.668859 180 7.01535e-015 178.872 179.026 7.30868 179.62 -2.70336e-006 4.08982e-006 0.0725389 -18.5262 67.8261 19.3893 8.18738 26.098 -2.86548 -177.991 -1.92262 3.1698 4.54188e-006 -4.6773e-006 -1.12216 -1.30826 -7.70366 0.257032 -1.72263e-007 -1.14387e-006 -0.110237 19.0164 68.3968 -19.884 -8.15235 25.4952 3.1427 
50.8922 100.802 40.1058 0.432473 -3.44446 0.899704 0.233685 -1.83817 -0.0939085 0.455801 0.326021 -0.213823 0.45829 1.97105 -0.221575 -6.71907 27.8732 5.172 -4.4374 -12.6036 1.69738 63.4677 -0.907844 -1.12447 108.463 14.3463 12.355 4.2345e-007 1.34129e-006 -1.5275e-006 14.1892 1.25614 -0.314176 -5.75092e-006 -1.14108e-006 -3 8.02891 -4.95147 0.697686 -64.3331 -5.22914 3.59086 -108.975 13.7526 -4.93453 -1.7228e-005 1.85548e-006 9.16869e-007 -11.8638 5.74378 1.07801 8.80905e-006 -8.29333e-007 2.99999 -8.02885 -4.95145 -0.697661 178.98 -2.20636 -0.666165 180 7.01535e-015 178.872 179.021 7.30078 179.621 -2.70336e-006 4.08982e-006 0.0725066 -18.5217 67.8207 19.3845 8.18757 26.1007 -2.86777 -177.992 -1.90451 3.17103 4.54188e-006 -4.6773e-006 -1.12216 -1.30884 -7.71022 0.257294 -1.72263e-007 -1.14387e-006 -0.110219 19.0172 68.3976 -19.8849 -8.15214 25.4921 3.14546 
50.8846 100.801 40.1046 0.433132 -3.43353 0.904371 0.233686 -1.83918 -0.0953808 0.456094 0.324006 -0.216492 0.458572 1.96904 -0.224242 -6.72477 27.8674 5.17236 -4.44098 -12.5991 1.69543 63.4632 -0.90262 -1.12109 108.461 14.3428 12.3634 4.2345e-007 1.34129e-006 -1.5275e-006 14.1846 1.24942 -0.313955 -5.75092e-006 -1.14108e-006 -3 8.02891 -4.95147 0.697686 -64.3379 -5.22535 3.58906 -108.96 13.7463 -4.94216 -1.7228e-005 1.85548e-006 9.16869e-007 -11.8643 5.74717 1.07817 8.80905e-006 -8.29333e-007 2.99999 -8.02885 -4.95145 -0.697661 178.977 -2.19672 -0.663491 180 7.01535e-015 178.872 179.015 7.29292 179.622 -2.70336e-006 4.08982e-006 0.0724757 -18.5172 67.8152 19.3796 8.18775 26.1032 -2.87005 -177.993 -1.88654 3.1722 4.54188e-006 -4.6773e-006 -1.12216 -1.30944 -7.71671 0.25755 -1.72263e-007 -1.14387e-006 -0.110203 19.0179 68.3984 -19.8857 -8.15193 25.4891 3.14819 
50.8854 100.802 40.1068 0.433764 -3.42281 0.908817 0.233687 -1.84012 -0.0968107 0.456389 0.322107 -0.219071 0.458856 1.96714 -0.226819 -6.73031 27.8614 5.17268 -4.44463 -12.5943 1.69349 63.4587 -0.897548 -1.11781 108.46 14.3394 12.3719 4.2345e-007 1.34129e-006 -1.5275e-006 14.18 1.24266 -0.313718 -5.75092e-006 -1.14108e-006 -3 8.02891 -4.95147 0.697686 -64.3424 -5.22166 3.58732 -108.946 13.7405 -4.95013 -1.7228e-005 1.85548e-006 9.16869e-007 -11.8643 5.7498 1.07824 8.80905e-006 -8.29333e-007 2.99999 -8.02885 -4.95145 -0.697661 178.974 -2.18723 -0.660869 180 7.01535e-015 178.872 179.01 7.28521 179.622 -2.70336e-006 4.08982e-006 0.0724487 -18.5128 67.8099 19.3749 8.18792 26.1057 -2.87231 -177.994 -1.86893 3.17327 4.54188e-006 -4.6773e-006 -1.12216 -1.3101 -7.72306 0.257791 -1.72263e-007 -1.14387e-006 -0.110188 19.0186 68.3992 -19.8864 -8.15173 25.4861 3.15087 
